# xmcd
#
# Track frame offsets:
# 150
# 14463
# 27010
# 39340
# 52163
# 64598
# 76805
# 89258
# 104133
# 114185
# 129023
# 139850
#
# Disc length: 2042 seconds
#
#
# Revision: 3
# Processed by: cddbd v1.5.1PL0 Copyright (c) Steve Scherf et al.
# Submitted via: FreeRIP 2.942 
#
DISCID=9207f80c
DTITLE=Elmore James - Dust my blues
DYEAR=1900
DGENRE=
TTITLE0=Dust my blues
TTITLE1=Standing at the Crossroads
TTITLE2=Blues before sunrise
TTITLE3=I was a fool
TTITLE4=Happy home
TTITLE5=Late hours at midnight
TTITLE6=Dark and dreary
TTITLE7=Sunnyland
TTITLE8=Mean and evil
TTITLE9=Wild about you baby
TTITLE10=No love in my heart
TTITLE11=Goodbye baby
EXTD=
EXTT0=
EXTT1=
EXTT2=
EXTT3=
EXTT4=
EXTT5=
EXTT6=
EXTT7=
EXTT8=
EXTT9=
EXTT10=
EXTT11=
PLAYORDER=
